<svg width="78" height="39" fill="none" xmlns="http://www.w3.org/2000/svg"><path d="M30.637 15.299c0 8.45-5.179 15.225-13.64 15.225C8.534 30.524 0 23.75 0 15.298 0 6.849 6.857 0 15.319 0c8.461 0 15.318 6.848 15.318 15.299Z" fill="#6BC566"/><path d="M11.306 14.861c-.51 0-.948.365-1.02.875 0 .072 0 .218.072.291.657 2.113 2.918 3.278 5.106 2.623a3.943 3.943 0 0 0 2.626-2.623.935.935 0 0 0-.656-1.166c-.073 0-.219-.072-.292-.072h-5.835v.072Z" fill="#002B3E"/><path d="M14.297 16.319a4.044 4.044 0 0 0-2.99 1.31c1.458 1.604 4.011 1.75 5.616.292l.292-.291c-.73-.874-1.823-1.311-2.918-1.311Z" fill="#CE4C59"/><path d="M19.622 13.04a3.864 3.864 0 0 0 3.867-3.86 3.864 3.864 0 0 0-3.867-3.862 3.864 3.864 0 0 0-3.866 3.861 3.864 3.864 0 0 0 3.866 3.861Z" fill="#fff"/><path d="M18.164 11.146a1.385 1.385 0 1 0 .001-2.77 1.385 1.385 0 0 0-.001 2.77Z" fill="#002B3E"/><path d="M8.826 13.04a3.864 3.864 0 0 0 3.867-3.86 3.864 3.864 0 0 0-3.867-3.862A3.864 3.864 0 0 0 4.96 9.18a3.864 3.864 0 0 0 3.866 3.861Z" fill="#fff"/><path d="M10.285 11.146a1.385 1.385 0 1 0 .002-2.77 1.385 1.385 0 0 0-.002 2.77Z" fill="#002B3E"/><path d="M77.687 15.299c0 8.45-7.878 15.298-16.34 15.298-8.461 0-14.37-6.848-14.37-15.299C46.977 6.849 53.834 0 62.296 0s15.319 6.848 15.391 15.299Z" fill="#89D770"/><path d="M38.807 30.597c8.46 0 15.319-6.85 15.319-15.299S47.268 0 38.807 0C30.347 0 23.49 6.85 23.49 15.299s6.858 15.298 15.318 15.298Z" fill="#B9EA77"/><path d="M35.89 14.861c-.511 0-.949.365-1.022.875 0 .072 0 .218.073.291.657 2.113 2.918 3.278 5.106 2.623a3.943 3.943 0 0 0 2.626-2.623.935.935 0 0 0-.656-1.166c-.073 0-.219-.072-.292-.072H35.89v.072Z" fill="#002B3E"/><path d="M38.807 16.319a4.044 4.044 0 0 0-2.99 1.31c1.458 1.604 4.012 1.75 5.616.292l.292-.291c-.73-.874-1.75-1.311-2.918-1.311Z" fill="#CE4C59"/><path d="M44.205 13.04a3.864 3.864 0 0 0 3.867-3.86 3.864 3.864 0 0 0-3.867-3.862A3.864 3.864 0 0 0 40.34 9.18a3.864 3.864 0 0 0 3.866 3.861Z" fill="#fff"/><path d="M42.746 11.146a1.385 1.385 0 1 0 .002-2.77 1.385 1.385 0 0 0-.002 2.77Z" fill="#002B3E"/><path d="M33.41 13.04a3.864 3.864 0 0 0 3.865-3.86 3.864 3.864 0 0 0-3.866-3.862 3.864 3.864 0 0 0-3.866 3.861 3.864 3.864 0 0 0 3.866 3.861Z" fill="#fff"/><path d="M34.795 11.146a1.385 1.385 0 1 0 .002-2.77 1.385 1.385 0 0 0-.002 2.77Z" fill="#002B3E"/><path d="M38.516 24.623C25.166 24.55 11.963 21.345 0 15.298c0 12.968 17.58 22.948 38.807 22.948 21.373 0 38.88-9.98 38.88-22.948-12.181 6.12-25.53 9.325-39.171 9.325Z" fill="#007E61"/><path d="M38.443 22.802c-15.027 0-28.45-2.477-38.443-7.503 8.389 10.344 22.686 17.12 38.807 17.12 16.194 0 30.492-6.703 38.88-17.12-10.139 5.245-23.999 7.503-39.244 7.503Z" fill="#00905F"/><path d="M60.545 14.861c-.51 0-.948.365-1.021.874 0 .073 0 .22.073.292.656 2.113 2.918 3.278 5.106 2.622a3.944 3.944 0 0 0 2.626-2.622.935.935 0 0 0-.656-1.166c-.073 0-.22-.072-.292-.072h-5.836v.072Z" fill="#002B3E"/><path d="M63.463 16.318a4.044 4.044 0 0 0-2.99 1.312c1.458 1.602 4.011 1.748 5.616.291l.292-.291c-.657-.874-1.75-1.312-2.918-1.312Z" fill="#CE4C59"/><path d="M68.861 13.04a3.864 3.864 0 0 0 3.866-3.861 3.864 3.864 0 0 0-3.866-3.861 3.864 3.864 0 0 0-3.866 3.861 3.864 3.864 0 0 0 3.866 3.861Z" fill="#fff"/><path d="M67.402 11.146a1.385 1.385 0 1 0 .002-2.77 1.385 1.385 0 0 0-.002 2.77Z" fill="#002B3E"/><path d="M58.065 13.04a3.864 3.864 0 0 0 3.866-3.861 3.864 3.864 0 0 0-3.866-3.861 3.864 3.864 0 0 0-3.866 3.861 3.864 3.864 0 0 0 3.866 3.861Z" fill="#fff"/><path d="M59.524 11.146a1.385 1.385 0 1 0 .002-2.77 1.385 1.385 0 0 0-.002 2.77Z" fill="#002B3E"/></svg>