<svg width="78" height="39" viewBox="0 0 78 39" fill="none" xmlns="http://www.w3.org/2000/svg">
<path d="M30.6373 15.2985C30.6373 23.749 25.4582 30.5241 16.9964 30.5241C8.53468 30.5241 0 23.749 0 15.2985C0 6.84788 6.85692 0 15.3187 0C23.7804 0 30.6373 6.84788 30.6373 15.2985Z" fill="#6BC566"/>
<path d="M11.3065 14.8614C10.7959 14.8614 10.3582 15.2257 10.2853 15.7356C10.2853 15.8085 10.2853 15.9542 10.3582 16.027C11.0147 18.1397 13.2761 19.3053 15.4644 18.6496C16.7045 18.2854 17.7258 17.2655 18.0905 16.027C18.2364 15.5171 17.9446 15.0071 17.434 14.8614C17.361 14.8614 17.2151 14.7886 17.1422 14.7886H11.3065V14.8614Z" fill="#002B3E"/>
<path d="M14.2973 16.3185C13.2031 16.3185 12.1089 16.7556 11.3065 17.6298C12.7654 19.2325 15.3185 19.3782 16.9234 17.9212C16.9963 17.8483 17.0693 17.7755 17.2151 17.6298C16.4857 16.7556 15.3915 16.3185 14.2973 16.3185Z" fill="#CE4C59"/>
<path d="M19.6225 13.0402C21.7577 13.0402 23.4886 11.3116 23.4886 9.17916C23.4886 7.04676 21.7577 5.31812 19.6225 5.31812C17.4873 5.31812 15.7563 7.04676 15.7563 9.17916C15.7563 11.3116 17.4873 13.0402 19.6225 13.0402Z" fill="white"/>
<path d="M18.1636 11.1461C18.929 11.1461 19.5495 10.5264 19.5495 9.76195C19.5495 8.99751 18.929 8.37781 18.1636 8.37781C17.3981 8.37781 16.7776 8.99751 16.7776 9.76195C16.7776 10.5264 17.3981 11.1461 18.1636 11.1461Z" fill="#002B3E"/>
<path d="M8.82647 13.0402C10.9617 13.0402 12.6926 11.3116 12.6926 9.17916C12.6926 7.04676 10.9617 5.31812 8.82647 5.31812C6.69126 5.31812 4.96033 7.04676 4.96033 9.17916C4.96033 11.3116 6.69126 13.0402 8.82647 13.0402Z" fill="white"/>
<path d="M10.2854 11.1461C11.0508 11.1461 11.6714 10.5264 11.6714 9.76195C11.6714 8.99751 11.0508 8.37781 10.2854 8.37781C9.51994 8.37781 8.89941 8.99751 8.89941 9.76195C8.89941 10.5264 9.51994 11.1461 10.2854 11.1461Z" fill="#002B3E"/>
<path d="M77.6874 15.2985C77.6874 23.749 69.8093 30.5969 61.3475 30.5969C52.8858 30.5969 46.9772 23.749 46.9772 15.2985C46.9772 6.84788 53.8341 0 62.2958 0C70.7576 0 77.6145 6.84788 77.6874 15.2985Z" fill="#89D770"/>
<path d="M38.8073 30.5969C47.2676 30.5969 54.126 23.7476 54.126 15.2985C54.126 6.84935 47.2676 0 38.8073 0C30.347 0 23.4886 6.84935 23.4886 15.2985C23.4886 23.7476 30.347 30.5969 38.8073 30.5969Z" fill="#B9EA77"/>
<path d="M35.8894 14.8614C35.3788 14.8614 34.9411 15.2257 34.8682 15.7356C34.8682 15.8085 34.8682 15.9542 34.9411 16.027C35.5976 18.1397 37.859 19.3053 40.0473 18.6496C41.2874 18.2854 42.3087 17.2655 42.6734 16.027C42.8193 15.5171 42.5275 15.0071 42.0169 14.8614C41.9439 14.8614 41.798 14.7886 41.7251 14.7886H35.8894V14.8614Z" fill="#002B3E"/>
<path d="M38.8073 16.3185C37.7131 16.3185 36.6189 16.7556 35.8165 17.6298C37.2754 19.2325 39.8286 19.3782 41.4334 17.9212C41.5063 17.8483 41.5793 17.7755 41.7252 17.6298C40.9957 16.7556 39.9745 16.3185 38.8073 16.3185Z" fill="#CE4C59"/>
<path d="M44.2054 13.0402C46.3406 13.0402 48.0715 11.3116 48.0715 9.17916C48.0715 7.04676 46.3406 5.31812 44.2054 5.31812C42.0702 5.31812 40.3392 7.04676 40.3392 9.17916C40.3392 11.3116 42.0702 13.0402 44.2054 13.0402Z" fill="white"/>
<path d="M42.7463 11.1461C43.5118 11.1461 44.1323 10.5264 44.1323 9.76195C44.1323 8.99751 43.5118 8.37781 42.7463 8.37781C41.9809 8.37781 41.3604 8.99751 41.3604 9.76195C41.3604 10.5264 41.9809 11.1461 42.7463 11.1461Z" fill="#002B3E"/>
<path d="M33.4092 13.0402C35.5444 13.0402 37.2754 11.3116 37.2754 9.17916C37.2754 7.04676 35.5444 5.31812 33.4092 5.31812C31.274 5.31812 29.5431 7.04676 29.5431 9.17916C29.5431 11.3116 31.274 13.0402 33.4092 13.0402Z" fill="white"/>
<path d="M34.7953 11.1461C35.5607 11.1461 36.1812 10.5264 36.1812 9.76195C36.1812 8.99751 35.5607 8.37781 34.7953 8.37781C34.0298 8.37781 33.4093 8.99751 33.4093 9.76195C33.4093 10.5264 34.0298 11.1461 34.7953 11.1461Z" fill="#002B3E"/>
<path d="M38.5155 24.6232C25.1664 24.5504 11.9631 21.345 0 15.2985C0 28.2657 17.58 38.2462 38.8073 38.2462C60.1805 38.2462 77.6875 28.2657 77.6875 15.2985C65.5055 21.4178 52.1564 24.6232 38.5155 24.6232Z" fill="#007E61"/>
<path d="M38.4426 22.802C23.4157 22.802 9.9936 20.3251 0 15.2985C8.38879 25.6431 22.6862 32.4182 38.8073 32.4182C55.0013 32.4182 69.2987 25.716 77.6875 15.2985C67.548 20.5436 53.6883 22.802 38.4426 22.802Z" fill="#00905F"/>
<path d="M60.5452 14.8613C60.0345 14.8613 59.5969 15.2256 59.5239 15.7355C59.5239 15.8084 59.5239 15.9541 59.5969 16.0269C60.2534 18.1395 62.5147 19.3051 64.7031 18.6495C65.9432 18.2852 66.9644 17.2653 67.3292 16.0269C67.475 15.517 67.1833 15.007 66.6726 14.8613C66.5997 14.8613 66.4538 14.7885 66.3809 14.7885H60.5452V14.8613Z" fill="#002B3E"/>
<path d="M63.4631 16.3184C62.3689 16.3184 61.2747 16.7555 60.4723 17.6297C61.9312 19.2324 64.4843 19.3781 66.0891 17.9211C66.1621 17.8482 66.235 17.7754 66.3809 17.6297C65.7244 16.7555 64.6302 16.3184 63.4631 16.3184Z" fill="#CE4C59"/>
<path d="M68.861 13.0401C70.9962 13.0401 72.7272 11.3114 72.7272 9.17903C72.7272 7.04664 70.9962 5.31799 68.861 5.31799C66.7258 5.31799 64.9949 7.04664 64.9949 9.17903C64.9949 11.3114 66.7258 13.0401 68.861 13.0401Z" fill="white"/>
<path d="M67.4022 11.146C68.1677 11.146 68.7882 10.5263 68.7882 9.76183C68.7882 8.99739 68.1677 8.37769 67.4022 8.37769C66.6368 8.37769 66.0162 8.99739 66.0162 9.76183C66.0162 10.5263 66.6368 11.146 67.4022 11.146Z" fill="#002B3E"/>
<path d="M58.065 13.0401C60.2002 13.0401 61.9311 11.3114 61.9311 9.17903C61.9311 7.04664 60.2002 5.31799 58.065 5.31799C55.9298 5.31799 54.1989 7.04664 54.1989 9.17903C54.1989 11.3114 55.9298 13.0401 58.065 13.0401Z" fill="white"/>
<path d="M59.5239 11.146C60.2894 11.146 60.9099 10.5263 60.9099 9.76183C60.9099 8.99739 60.2894 8.37769 59.5239 8.37769C58.7585 8.37769 58.1379 8.99739 58.1379 9.76183C58.1379 10.5263 58.7585 11.146 59.5239 11.146Z" fill="#002B3E"/>
</svg>
